<?xml version="1.0" encoding="UTF-8" standalone="no"?>
<svg
   xmlns:dc="http://purl.org/dc/elements/1.1/"
   xmlns:cc="http://creativecommons.org/ns#"
   xmlns:rdf="http://www.w3.org/1999/02/22-rdf-syntax-ns#"
   xmlns:svg="http://www.w3.org/2000/svg"
   xmlns="http://www.w3.org/2000/svg"
   xmlns:sodipodi="http://sodipodi.sourceforge.net/DTD/sodipodi-0.dtd"
   xmlns:inkscape="http://www.inkscape.org/namespaces/inkscape"
   viewBox="0 0 14.97 12.6"
   version="1.1"
   id="svg10"
   sodipodi:docname="icon_address_purple_1.svg"
   inkscape:version="0.92.4 (5da689c313, 2019-01-14)">
  <metadata
     id="metadata14">
    <rdf:RDF>
      <cc:Work
         rdf:about="">
        <dc:format>image/svg+xml</dc:format>
        <dc:type
           rdf:resource="http://purl.org/dc/dcmitype/StillImage" />
        <dc:title>icon_address</dc:title>
      </cc:Work>
    </rdf:RDF>
  </metadata>
  <sodipodi:namedview
     pagecolor="#ffffff"
     bordercolor="#666666"
     borderopacity="1"
     objecttolerance="10"
     gridtolerance="10"
     guidetolerance="10"
     inkscape:pageopacity="0"
     inkscape:pageshadow="2"
     inkscape:window-width="1920"
     inkscape:window-height="1001"
     id="namedview12"
     showgrid="false"
     inkscape:zoom="18.730158"
     inkscape:cx="7.4850001"
     inkscape:cy="6.3000002"
     inkscape:window-x="-9"
     inkscape:window-y="-9"
     inkscape:window-maximized="1"
     inkscape:current-layer="svg10" />
  <defs
     id="defs4">
    <style
       id="style2">.a{fill:#eb2227;}</style>
  </defs>
  <title
     id="title6">icon_address</title>
  <path
     class="a"
     d="M14.67,5.74L8.25,0.3A1.27,1.27,0,0,0,6.68.24L0.33,5.78a1.06,1.06,0,0,0,.79,1.81H2v4.13a0.92,0.92,0,0,0,1,.87H6V8c0-.52.13-0.38,0.64-0.38h2C9.12,7.59,9,7.45,9,8v4.62h3.19A0.78,0.78,0,0,0,13,11.72V7.59h0.93A1.08,1.08,0,0,0,14.67,5.74Z"
     transform="translate(-0.02 0)"
     id="path8"
     style="fill:#77408e;fill-opacity:1" />
</svg>
