<?xml version="1.0" encoding="UTF-8"?>
<!-- Created with Inkscape (http://www.inkscape.org/) -->
<svg width="682.67" height="682.67" version="1.1" viewBox="0 0 682.67 682.67" xmlns="http://www.w3.org/2000/svg" xmlns:cc="http://creativecommons.org/ns#" xmlns:dc="http://purl.org/dc/elements/1.1/" xmlns:rdf="http://www.w3.org/1999/02/22-rdf-syntax-ns#">
 <metadata>
  <rdf:RDF>
   <cc:Work rdf:about="">
    <dc:format>image/svg+xml</dc:format>
    <dc:type rdf:resource="http://purl.org/dc/dcmitype/StillImage"/>
    <dc:title/>
   </cc:Work>
  </rdf:RDF>
 </metadata>
 <g transform="translate(-7.3773 -8.0939)" fill="none" stroke="#f6d5ff" stroke-width="4.9">
  <path d="m22.441 678.29 649.1-642.69"/>
  <path d="m49.627 678.29 621.65-615.51"/>
  <path d="m76.812 678.29 596.39-590.5"/>
  <path d="m104 678.29 566.97-561.37"/>
  <path d="m131.18 678.29 541.02-535.68"/>
  <path d="m158.37 678.29 513.62-508.55"/>
  <path d="m185.56 678.29 486.74-481.94"/>
  <path d="m212.74 678.29 460.26-455.72"/>
  <path d="m239.93 678.29 432.66-428.39"/>
  <path d="m267.11 678.29 404.93-400.94"/>
  <path d="m294.3 678.29 378.52-374.78"/>
  <path d="m321.48 678.29 351.61-348.14"/>
  <path d="m348.67 678.29 323.58-320.39"/>
  <path d="m375.85 678.29 297.82-294.88"/>
  <path d="m403.04 678.29 270.42-267.75"/>
  <path d="m430.23 678.29 243.02-240.62"/>
  <path d="m457.41 678.29 215.49-213.37"/>
  <path d="m484.6 678.29 189.1-187.23"/>
  <path d="m511.78 678.29 161.07-159.48"/>
  <path d="m538.97 678.29 134.3-132.97"/>
  <path d="m566.15 678.29 106.88-105.83"/>
  <path d="m593.34 678.29 79.839-79.052"/>
  <path d="m620.53 678.29 52.374-51.857"/>
  <path d="m647.71 678.29 25.334-25.084"/>
  <path d="m10.221 44.368 28.041-27.764"/>
  <path d="m10.442 71.067 55.006-54.463"/>
  <path d="m11.206 97.228 81.428-80.624"/>
  <path d="m11.558 123.8 108.26-107.19"/>
  <path d="m11.361 150.91 135.64-134.31"/>
  <path d="m11.443 177.74 162.75-161.14"/>
  <path d="m11.248 204.86 190.13-188.25"/>
  <path d="m11.191 231.83 217.37-215.23"/>
  <path d="m12.184 257.76 243.56-241.16"/>
  <path d="m11.593 285.27 271.34-268.66"/>
  <path d="m10.669 313.1 299.45-296.49"/>
  <path d="m9.324 341.35 327.98-324.74"/>
  <path d="m11.245 366.36 353.25-349.76"/>
  <path d="m10.611 393.91 381.06-377.3"/>
  <path d="m10.439 421 408.42-404.39"/>
  <path d="m11.424 446.94 434.62-430.33"/>
  <path d="m10.559 474.71 462.67-458.11"/>
  <path d="m8.7685 503.4 491.65-486.8"/>
  <path d="m9.9894 529.11 517.61-512.51"/>
  <path d="m11.215 554.81 543.57-538.21"/>
  <path d="m10.579 582.36 571.4-565.76"/>
  <path d="m9.9402 609.91 599.22-593.31"/>
  <path d="m10.235 636.54 626.11-619.93"/>
  <path d="m9.832 663.85 653.7-647.25"/>
 </g>
 <path d="m56.097 677.51c-29.427-7.7341-52.748-31.237-60.302-60.773-2.58-10.088-2.6339-15.769-2.6339-277.21 0-261.9 0.0497-267.1 2.6475-277.26 7.0624-27.614 28.326-50.304 56.019-59.777l8.6667-2.9647 272.67-0.72749v84.061h-256v513.33h513.33v-128.68l84.053-83.984-0.36006 114.67c-0.35972 114.56-0.36276 114.67-3.3247 123.33-8.7024 25.439-29.596 46.333-55.035 55.035l-8.6667 2.9647-270.67 0.268c-263.01 0.2605-270.94 0.1957-280.4-2.2894zm106.44-151.31c-0.0416-14.935 2.0534-44.255 4.6683-65.333 20.189-162.73 101-292.27 202.51-324.59 13.466-4.288 34.219-8.0564 44.445-8.0706l5.6667-8e-3 8e-3 -55c4e-3 -32.291 0.55405-56.968 1.3313-59.766 2.8284-10.182 13.345-14.116 22.498-8.4161 2.2215 1.3833 53.329 42.028 113.57 90.322 121.15 97.121 113.24 89.738 116.16 108.47 1.712 10.996-0.38579 26.613-4.5954 34.209-4.0736 7.3513-222.55 182.75-230.2 184.81-6.7382 1.8144-12.187-0.1791-15.512-5.6751-2.44-4.0336-2.639-7.8239-3.265-62.221l-0.66667-57.926-8 0.3135c-13.056 0.5116-32.419 4.1937-46.837 8.9065-78.027 25.505-148.56 102.92-193.83 212.74l-7.9238 19.224-0.0335-12z" fill="#7e4795" stroke-width="1.3333"/>
</svg>
