<svg width="2133.3" height="2133.3" xmlns="http://www.w3.org/2000/svg"><circle transform="rotate(-90)" cx="-1066.7" cy="1066.7" r="840.68" fill="#fff"/><path d="M1932.3 1090.7c-5.85 188.3-69.667 364.71-184.98 511.33-21.067 26.789-38.154 46.106-64.094 72.459-138.32 140.52-317.99 228.74-513.43 252.1-36.68 4.384-61.564 5.774-103.33 5.774-55.254 0-96.977-3.491-149.33-12.496-256.06-44.04-480.76-204.05-608.3-433.17-61.02-109.62-96.93-231.01-106.5-360-.843-11.367-1.533-38.367-1.533-60 0-41.769 1.39-66.653 5.775-103.33 29.12-243.65 159.56-462.1 361.22-604.95 115.76-82 252.85-134.57 395.33-151.6 36.68-4.383 61.564-5.774 103.33-5.774 41.769 0 66.653 1.39 103.33 5.774 243.65 29.12 462.1 159.56 604.95 361.22 82 115.76 134.57 252.85 151.6 395.33 4.521 37.835 7.045 91.898 5.944 127.33zm-134.47-80.697c-3.258-39.637-7.745-69.774-15.577-104.64-41.965-186.79-156.09-350.16-317.79-454.91-119.19-77.214-254.75-117.09-398-117.09s-278.81 39.881-398 117.09c-180.96 117.23-301.44 307.32-329.29 519.57-8.02 61.122-8.02 132.21 0 193.33 27.852 212.25 148.33 402.34 329.29 519.57 119.19 77.214 254.75 117.09 398 117.09s278.81-39.88 398-117.09c181.21-117.38 301.45-307.31 329.38-520.24 5.99-45.674 7.625-108.36 3.98-152.7zm-508.03 160.7-223.33 223.33-446.66-446.66 93.986-94.014 352.68 352.67 352.68-352.67 93.986 94.014z" fill="#e00000"/></svg>