<svg width="266.67" height="266.67" xmlns="http://www.w3.org/2000/svg"><path d="M10.706 256.2.4 245.833l74.644-74.609 20.655 20.655-74.687 74.687zm129.67-56.315c-45.245-12.087-76.056-51.787-75.977-97.893.027-15.5 2.223-27.35 7.329-39.538C94.017 9.247 157.15-14.932 209.038 9.865c12.955 6.19 25.924 16.379 34.38 27.009 9.634 12.11 13.467 19.117 18.526 33.874 3.932 11.471 4.273 13.827 4.312 29.789.034 14.039-.524 19.312-2.939 27.746-9.428 32.93-34.01 58.786-66.279 69.712-14.813 5.016-41.617 5.91-56.667 1.889zm45.264-26.202c20-5.615 38.421-20.925 47.1-39.145 23.978-50.334-11.813-108-67.031-108-38.146 0-70.404 28.543-74.576 65.985-5.946 53.369 43.191 95.567 94.506 81.16z" fill="#e00000"/></svg>