<svg xmlns="http://www.w3.org/2000/svg" width="2133.333" height="2133.333"><circle style="fill:#fff;fill-opacity:1;stroke-width:2.32500005" cx="1066.667" cy="-1066.667" r="840.678" transform="rotate(90)"/><path style="fill:#7e4795;fill-opacity:1;stroke-width:1.33333325" d="M201.047 1042.667c5.85-188.296 69.667-364.707 184.976-511.334 21.067-26.788 38.154-46.105 64.094-72.459 138.317-140.52 317.986-228.738 513.43-252.096 36.68-4.383 61.564-5.774 103.333-5.774 55.254 0 96.978 3.492 149.334 12.497 256.06 44.04 480.756 204.045 608.3 433.166 61.02 109.617 96.93 231.006 106.496 360 .843 11.366 1.533 38.366 1.533 60 0 41.769-1.39 66.653-5.774 103.333-29.12 243.654-159.557 462.102-361.222 604.954-115.762 82.002-252.853 134.573-395.333 151.6-36.68 4.385-61.564 5.775-103.334 5.775-41.769 0-66.653-1.39-103.333-5.774-243.654-29.12-462.102-159.557-604.954-361.222C276.59 1449.571 224.02 1312.48 206.993 1170c-4.523-37.835-7.047-91.898-5.946-127.333zm134.47 80.697c3.259 39.636 7.745 69.774 15.577 104.636 41.965 186.793 156.088 350.158 317.786 454.906 119.195 77.213 254.747 117.094 398 117.094s278.806-39.88 398-117.094c180.965-117.229 301.442-307.323 329.293-519.573 8.02-61.122 8.02-132.211 0-193.333-27.851-212.25-148.328-402.344-329.293-519.572-119.194-77.214-254.747-117.095-398-117.095s-278.805 39.88-398 117.095c-181.205 117.384-301.454 307.31-329.383 520.239-5.99 45.674-7.624 108.359-3.98 152.697zm508.033-160.7 223.33-223.328 223.331 223.328 223.33 223.327-46.992 47.007-46.993 47.007-176.338-176.334-176.338-176.334-176.337 176.334-176.338 176.334-46.993-47.007-46.993-47.007z"/></svg>