<?xml version="1.0" encoding="UTF-8" standalone="no"?>
<!-- Created with Inkscape (http://www.inkscape.org/) -->

<svg
   xmlns:dc="http://purl.org/dc/elements/1.1/"
   xmlns:cc="http://creativecommons.org/ns#"
   xmlns:rdf="http://www.w3.org/1999/02/22-rdf-syntax-ns#"
   xmlns:svg="http://www.w3.org/2000/svg"
   xmlns="http://www.w3.org/2000/svg"
   xmlns:sodipodi="http://sodipodi.sourceforge.net/DTD/sodipodi-0.dtd"
   xmlns:inkscape="http://www.inkscape.org/namespaces/inkscape"
   version="1.1"
   id="svg2"
   width="2133.3333"
   height="2133.3333"
   viewBox="0 0 2133.3333 2133.3333"
   sodipodi:docname="chevron_right_round_purple.svg"
   inkscape:version="0.92.4 (5da689c313, 2019-01-14)">
  <metadata
     id="metadata8">
    <rdf:RDF>
      <cc:Work
         rdf:about="">
        <dc:format>image/svg+xml</dc:format>
        <dc:type
           rdf:resource="http://purl.org/dc/dcmitype/StillImage" />
        <dc:title></dc:title>
      </cc:Work>
    </rdf:RDF>
  </metadata>
  <defs
     id="defs6" />
  <sodipodi:namedview
     pagecolor="#ffffff"
     bordercolor="#666666"
     borderopacity="1"
     objecttolerance="10"
     gridtolerance="10"
     guidetolerance="10"
     inkscape:pageopacity="0"
     inkscape:pageshadow="2"
     inkscape:window-width="1920"
     inkscape:window-height="1001"
     id="namedview4"
     showgrid="false"
     inkscape:zoom="0.110625"
     inkscape:cx="1066.6666"
     inkscape:cy="1066.6666"
     inkscape:window-x="-9"
     inkscape:window-y="-9"
     inkscape:window-maximized="1"
     inkscape:current-layer="svg2" />
  <circle
     style="fill:#ffffff;fill-opacity:1;stroke-width:2.32500005"
     id="path821"
     cx="-1066.6666"
     cy="-1066.6666"
     r="840.67792"
     transform="scale(-1)" />
  <path
     style="fill:#7e4795;fill-opacity:1;stroke-width:1.33333325"
     d="m 1090.6665,201.04727 c 188.2959,5.8499 364.7066,69.6668 511.3334,184.9756 26.7888,21.0669 46.1056,38.1537 72.4592,64.0941 140.5193,138.3166 228.7378,317.9864 252.0957,513.43 4.3837,36.68013 5.7742,61.56403 5.7742,103.33343 0,55.2535 -3.4915,96.9774 -12.4963,149.3333 -44.0405,256.0595 -204.0455,480.7566 -433.1661,608.3005 -109.6169,61.0201 -231.0065,96.9298 -360.0001,106.4959 -11.3666,0.843 -38.3666,1.5327 -59.9999,1.5327 -41.7694,0 -66.6533,-1.3905 -103.33336,-5.7743 -243.6536,-29.1195 -462.1024,-159.5565 -604.9544,-361.2215 -82.0014,-115.762 -134.5722,-252.8528 -151.6005,-395.3333 -4.3836,-36.6801 -5.7741,-61.564 -5.7741,-103.3333 0,-41.7694 1.3905,-66.6533 5.7741,-103.33343 29.1196,-243.6536 159.5567,-462.1024 361.2216,-604.9544 115.762,-82.0014 252.8528,-134.5722 395.3333,-151.6005 37.83486,-4.5217 91.89786,-7.0457 127.33326,-5.9448 z m -80.697,134.4701 c -39.63646,3.2583 -69.77426,7.7448 -104.63626,15.577 -186.7934,41.965 -350.1577,156.0873 -454.9056,317.786 -77.2138,119.1945 -117.0944,254.7471 -117.0944,398.00003 0,143.2528 39.8806,278.8054 117.0944,397.9999 117.2282,180.9643 307.3222,301.4416 519.5723,329.2931 61.12196,8.0204 132.21126,8.0204 193.33326,0 212.2502,-27.8515 402.3442,-148.3288 519.5723,-329.2931 77.2139,-119.1945 117.0944,-254.7471 117.0944,-397.9999 0,-143.25293 -39.8805,-278.80553 -117.0944,-398.00003 -117.3845,-181.2058 -307.3096,-301.4546 -520.2389,-329.3831 -45.6743,-5.9908 -108.3591,-7.6247 -152.6971,-3.9799 z m 160.6998,508.0323 223.3276,223.33073 -223.3276,223.3306 -223.32756,223.3306 -47.0068,-46.9929 -47.0068,-46.9928 176.33396,-176.3378 176.334,-176.3377 -176.334,-176.33783 -176.33396,-176.3378 47.0068,-46.9928 47.0068,-46.9928 z"
     id="path817"
     inkscape:connector-curvature="0" />
</svg>
