<svg xmlns="http://www.w3.org/2000/svg" viewBox="0 0 12.21 15"><path d="m12.65 12.6-1.72-2.45a1.1 1.1 0 0 0-1.54-.24l-1.23.87-.16-.15a10.61 10.61 0 0 1-2.25-2.27 10.67 10.67 0 0 1-1.39-2.85l-.08-.22.83-.58.41-.29a1.1 1.1 0 0 0 .29-1.53L4.08.45A1.1 1.1 0 0 0 2.54.21L1.85.7a3.45 3.45 0 0 0-.63.77 3.6 3.6 0 0 0-.37.83c-.67 2.24 0 4.5 2.35 7.83C6.46 14.74 9.66 15 9.8 15a3.58 3.58 0 0 0 .91-.07 3.44 3.44 0 0 0 .93-.33l.7-.48a1.1 1.1 0 0 0 .31-1.52z" transform="translate(-.63)" style="fill:#77408e;fill-opacity:1"/></svg>