<svg xmlns="http://www.w3.org/2000/svg" width="682.667" height="682.667"><g style="stroke:#f6d5ff"><path d="m22.441 678.286 649.1-642.695M49.627 678.286 671.276 62.772M76.812 678.286l596.39-590.504M103.998 678.286l566.967-561.372M131.184 678.286l541.018-535.68M158.37 678.286l513.615-508.548M185.555 678.286l486.741-481.938M212.74 678.286 673 222.568M239.926 678.286l432.661-428.391M267.112 678.286l404.932-400.937M294.298 678.286l378.519-374.784M321.483 678.286l351.613-348.143M348.67 678.286l323.583-320.391M375.855 678.286l297.822-294.883M403.04 678.286l270.421-267.752M430.226 678.286l243.018-240.62M457.412 678.286 672.904 464.92M484.597 678.286l189.1-187.233M511.783 678.286l161.068-159.479M538.969 678.286l134.297-132.973M566.154 678.286l106.882-105.827M593.34 678.286l79.84-79.052M620.526 678.286l52.374-51.857M647.711 678.286l25.334-25.084M10.221 44.368l28.041-27.764M10.442 71.067l55.006-54.463M11.206 97.228l81.427-80.624M11.558 123.797 119.819 16.604M11.36 150.91 147.006 16.603M11.443 177.745 174.19 16.604M11.248 204.856 201.376 16.604M11.191 231.83l217.37-215.226M12.184 257.763l243.563-241.16M11.593 285.266l271.34-268.662M10.669 313.098l299.45-296.494M9.324 341.347l327.98-324.743M11.245 366.363 364.49 16.603M10.61 393.908 391.677 16.604M10.439 420.996 418.861 16.604M11.424 446.937 446.047 16.604M10.56 474.711 473.232 16.604M8.768 503.402l491.65-486.798M9.99 529.11 527.603 16.604M11.215 554.814 554.79 16.604M10.579 582.362 581.975 16.604M9.94 609.911 609.16 16.604M10.235 636.537 636.346 16.604M9.832 663.853l653.7-647.25" style="fill:none;fill-rule:evenodd;stroke:#f6d5ff;stroke-width:4.9000001;stroke-linecap:butt;stroke-linejoin:miter;stroke-miterlimit:4;stroke-dasharray:none;stroke-opacity:1" transform="translate(-7.377 -8.094)"/></g><path style="fill:#7e4795;stroke-width:1.33333337;fill-opacity:1" d="M56.097 677.508C26.67 669.774 3.35 646.271-4.204 616.735c-2.58-10.088-2.634-15.77-2.634-277.206 0-261.898.05-267.1 2.647-277.258C2.872 34.657 24.135 11.967 51.83 2.494l8.666-2.965L196.83-.834l136.333-.364v84.06h-256v513.334h513.333V467.513l42.027-41.992 42.027-41.992-.36 114.667c-.36 114.562-.363 114.675-3.325 123.333-8.702 25.44-29.596 46.333-55.035 55.036l-8.667 2.964-270.667.268c-263.007.26-270.942.196-280.398-2.289zM162.54 526.196c-.042-14.935 2.053-44.255 4.668-65.333C187.396 298.13 268.21 168.598 369.717 136.274c13.465-4.287 34.219-8.056 44.445-8.07l5.667-.008.008-55c.004-32.291.554-56.968 1.33-59.766 2.83-10.182 13.346-14.116 22.499-8.416 2.221 1.383 53.329 42.028 113.572 90.322 121.15 97.121 113.244 89.738 116.16 108.474 1.713 10.996-.385 26.612-4.595 34.209-4.073 7.351-222.549 182.754-230.197 184.814-6.738 1.814-12.187-.18-15.512-5.675-2.44-4.034-2.639-7.824-3.265-62.221l-.667-57.926-8 .313c-13.056.512-32.419 4.194-46.837 8.907-78.027 25.504-148.564 102.924-193.828 212.74l-7.923 19.225-.034-12z"/></svg>