<svg width="682.67" height="682.67" xmlns="http://www.w3.org/2000/svg"><g fill="none" stroke="#f6d5ff" stroke-width="4.9"><path d="m15.064 670.196 649.1-642.69M42.25 670.196 663.9 54.686M69.435 670.196l596.39-590.5M96.623 670.196l566.97-561.37M123.803 670.196l541.02-535.68M150.993 670.196l513.62-508.55M178.183 670.196l486.74-481.94M205.363 670.196l460.26-455.72M232.553 670.196l432.66-428.39M259.733 670.196l404.93-400.94M286.923 670.196l378.52-374.78M314.103 670.196l351.61-348.14M341.293 670.196l323.58-320.39M368.473 670.196l297.82-294.88M395.663 670.196l270.42-267.75M422.853 670.196l243.02-240.62M450.033 670.196l215.49-213.37M477.223 670.196l189.1-187.23M504.403 670.196l161.07-159.48M531.593 670.196l134.3-132.97M558.773 670.196l106.88-105.83M585.963 670.196l79.839-79.052M613.153 670.196l52.374-51.857M640.333 670.196l25.334-25.084M2.844 36.274 30.884 8.51M3.065 62.973 58.07 8.51M3.829 89.134 85.257 8.51M4.18 115.706 112.44 8.516M3.984 142.816l135.64-134.31M4.066 169.646l162.75-161.14M3.87 196.766 194 8.516M3.814 223.736l217.37-215.23M4.807 249.666l243.56-241.16M4.216 277.176l271.34-268.66M3.292 305.006l299.45-296.49M1.947 333.256l327.98-324.74M3.868 358.266l353.25-349.76M3.234 385.816l381.06-377.3M3.062 412.906l408.42-404.39M4.047 438.846l434.62-430.33M3.182 466.616l462.67-458.11M1.391 495.306l491.65-486.8M2.612 521.016l517.61-512.51M3.838 546.716l543.57-538.21M3.202 574.266l571.4-565.76M2.563 601.816l599.22-593.31M2.858 628.446l626.11-619.93M2.455 655.756l653.7-647.25"/></g><path d="M56.097 677.51c-29.427-7.734-52.748-31.237-60.302-60.773-2.58-10.088-2.634-15.769-2.634-277.21 0-261.9.05-267.1 2.648-277.26C2.87 34.653 24.135 11.963 51.828 2.49l8.666-2.965 272.67-.727v84.06h-256v513.33h513.33v-128.68l84.053-83.983-.36 114.67c-.36 114.56-.363 114.67-3.324 123.33-8.703 25.439-29.596 46.333-55.035 55.035l-8.667 2.965-270.67.268c-263.01.26-270.94.195-280.4-2.29zm106.44-151.31c-.042-14.935 2.053-44.255 4.668-65.333 20.19-162.73 101-292.27 202.51-324.59 13.466-4.288 34.22-8.056 44.445-8.07l5.667-.009.008-55c.004-32.29.554-56.968 1.331-59.766 2.829-10.182 13.345-14.116 22.498-8.416 2.222 1.384 53.33 42.028 113.57 90.322 121.15 97.121 113.24 89.738 116.16 108.47 1.712 10.996-.385 26.613-4.595 34.21-4.074 7.35-222.55 182.75-230.2 184.81-6.738 1.814-12.187-.18-15.512-5.676-2.44-4.033-2.64-7.824-3.265-62.22l-.667-57.927-8 .314c-13.056.511-32.419 4.193-46.837 8.906-78.027 25.505-148.56 102.92-193.83 212.74l-7.924 19.224-.033-12z" fill="#7e4795"/></svg>