<svg xmlns="http://www.w3.org/2000/svg" width="266.667" height="266.667"><path style="fill:#77408e;fill-opacity:1;stroke-width:1.33333325" d="M10.706 256.201.4 245.835l37.322-37.305 37.323-37.304 10.327 10.327 10.327 10.328-37.343 37.343-37.344 37.344zm129.674-56.315C95.135 187.8 64.324 148.1 64.403 101.993c.027-15.5 2.223-27.35 7.328-39.538C94.021 9.248 157.154-14.93 209.046 9.867c12.955 6.19 25.924 16.378 34.381 27.009 9.634 12.11 13.466 19.117 18.525 33.874 3.933 11.471 4.274 13.827 4.313 29.79.034 14.039-.524 19.312-2.94 27.745-9.428 32.93-34.01 58.786-66.279 69.712-14.812 5.016-41.617 5.91-56.666 1.89zm45.263-26.201c20-5.616 38.421-20.925 47.1-39.145 23.979-50.334-11.812-108-67.03-108-38.145 0-70.404 28.542-74.576 65.985-5.946 53.369 43.192 95.567 94.506 81.16z"/></svg>