<svg xmlns="http://www.w3.org/2000/svg" width="1600" height="1600"><circle style="fill:#fff;fill-opacity:1;stroke-width:2.29090905" cx="818.55" cy="797.33" r="640.678"/><path style="fill:#77408e;fill-opacity:1" d="M800.55 1446.545c-141.222-4.388-273.53-52.25-383.5-138.732-20.092-15.8-34.58-28.615-54.345-48.07-105.39-103.738-171.553-238.49-189.071-385.073-3.288-27.51-4.331-46.173-4.331-77.5 0-41.44 2.619-72.733 9.372-112 33.03-192.045 153.034-360.567 324.875-456.225 82.212-45.765 173.255-72.698 270-79.872 8.525-.632 28.775-1.15 45-1.15 31.327 0 49.99 1.043 77.5 4.33 182.74 21.84 346.577 119.668 453.716 270.917 61.5 86.822 100.929 189.64 113.7 296.5 3.288 27.51 4.33 46.173 4.33 77.5 0 31.327-1.042 49.99-4.33 77.5-21.84 182.74-119.668 346.577-270.916 453.716-86.822 61.5-189.64 100.929-296.5 113.7-28.376 3.391-68.924 5.284-95.5 4.459zm60.523-100.853c29.727-2.444 52.33-5.808 78.477-11.683 140.095-31.473 262.618-117.065 341.179-238.339 57.91-89.396 87.82-191.06 87.82-298.5s-29.91-209.104-87.82-298.5c-87.921-135.723-230.492-226.081-389.68-246.97-45.84-6.015-99.158-6.015-145 0-159.187 20.889-301.757 111.247-389.678 246.97-57.91 89.396-87.821 191.06-87.821 298.5s29.91 209.104 87.82 298.5c88.039 135.904 230.483 226.09 390.18 247.037 34.255 4.493 81.269 5.719 114.523 2.985zM394.705 792.904l-.01-48.266 423.426-.291 423.427-.292V841.17H394.71l-.01-48.266z"/></svg>