<?xml version="1.0" encoding="UTF-8" standalone="no"?>
<svg
   xmlns:dc="http://purl.org/dc/elements/1.1/"
   xmlns:cc="http://creativecommons.org/ns#"
   xmlns:rdf="http://www.w3.org/1999/02/22-rdf-syntax-ns#"
   xmlns:svg="http://www.w3.org/2000/svg"
   xmlns="http://www.w3.org/2000/svg"
   xmlns:sodipodi="http://sodipodi.sourceforge.net/DTD/sodipodi-0.dtd"
   xmlns:inkscape="http://www.inkscape.org/namespaces/inkscape"
   viewBox="0 0 12.21 15"
   version="1.1"
   id="svg10"
   sodipodi:docname="icon_phone_purple.svg"
   inkscape:version="0.92.4 (5da689c313, 2019-01-14)">
  <metadata
     id="metadata14">
    <rdf:RDF>
      <cc:Work
         rdf:about="">
        <dc:format>image/svg+xml</dc:format>
        <dc:type
           rdf:resource="http://purl.org/dc/dcmitype/StillImage" />
        <dc:title>icon_phone</dc:title>
      </cc:Work>
    </rdf:RDF>
  </metadata>
  <sodipodi:namedview
     pagecolor="#ffffff"
     bordercolor="#666666"
     borderopacity="1"
     objecttolerance="10"
     gridtolerance="10"
     guidetolerance="10"
     inkscape:pageopacity="0"
     inkscape:pageshadow="2"
     inkscape:window-width="1920"
     inkscape:window-height="1001"
     id="namedview12"
     showgrid="false"
     inkscape:zoom="15.733333"
     inkscape:cx="-13.121695"
     inkscape:cy="7.4999998"
     inkscape:window-x="-9"
     inkscape:window-y="-9"
     inkscape:window-maximized="1"
     inkscape:current-layer="svg10" />
  <defs
     id="defs4">
    <style
       id="style2">.a{fill:#ec1c24;}</style>
  </defs>
  <title
     id="title6">icon_phone</title>
  <path
     class="a"
     d="M12.65,12.6l-1.72-2.45a1.1,1.1,0,0,0-1.54-.24l-1.23.87L8,10.63A10.61,10.61,0,0,1,5.75,8.36,10.67,10.67,0,0,1,4.36,5.51L4.28,5.29l0.83-.58,0.41-.29a1.1,1.1,0,0,0,.29-1.53L4.08,0.45A1.1,1.1,0,0,0,2.54.21L1.85,0.7v0a3.45,3.45,0,0,0-.63.77,3.6,3.6,0,0,0-.37.83c-0.67,2.24,0,4.5,2.35,7.83C6.46,14.74,9.66,15,9.8,15a3.58,3.58,0,0,0,.91-0.07,3.44,3.44,0,0,0,.93-0.33h0l0.7-.48A1.1,1.1,0,0,0,12.65,12.6Z"
     transform="translate(-0.63)"
     id="path8"
     style="fill:#77408e;fill-opacity:1"
     inkscape:export-xdpi="89"
     inkscape:export-ydpi="89" />
</svg>
