<svg xmlns="http://www.w3.org/2000/svg" width="1600" height="1600"><circle style="fill:#fff;fill-opacity:1;stroke-width:2.14942527" cx="800" cy="800" r="633.898"/><path style="fill:#77408e;fill-opacity:1" d="M782 1449.215c-141.222-4.388-273.53-52.25-383.5-138.732-20.092-15.8-34.58-28.615-54.344-48.07-105.39-103.738-171.554-238.49-189.072-385.073-3.288-27.51-4.33-46.173-4.33-77.5 0-41.44 2.618-72.733 9.371-112C193.155 495.795 313.16 327.272 485 231.614c82.213-45.765 173.255-72.697 270-79.872 8.525-.632 28.775-1.15 45-1.15 31.327 0 49.99 1.044 77.5 4.332 182.74 21.84 346.577 119.667 453.716 270.916 61.5 86.821 100.929 189.64 113.7 296.5 3.288 27.51 4.33 46.173 4.33 77.5 0 31.327-1.042 49.99-4.33 77.5-21.84 182.74-119.667 346.576-270.916 453.715-86.822 61.502-189.64 100.93-296.5 113.7-28.376 3.392-68.923 5.285-95.5 4.46zm60.523-100.853c29.727-2.444 52.33-5.809 78.477-11.683 140.095-31.474 262.618-117.065 341.18-238.34 57.91-89.395 87.82-191.06 87.82-298.5 0-107.439-29.91-209.103-87.82-298.5-87.922-135.722-230.492-226.08-389.68-246.969-45.842-6.015-99.159-6.015-145 0-159.188 20.889-301.758 111.247-389.68 246.97C279.91 590.736 250 692.4 250 799.84s29.91 209.104 87.82 298.5c88.04 135.904 230.483 226.09 390.18 247.037 34.256 4.493 81.27 5.718 114.523 2.985zM750 1037.84v-194H376.163l-.01-48.306-.01-48.305 169.676-.097c93.322-.054 177.44-.141 186.927-.195l17.25-.097V385.003l48.304-.008 48.305-.008-.069 179.176c-.038 98.547.102 179.964.312 180.926.361 1.66 10.14 1.75 188.265 1.75h187.883v97h-376v388h-97v-194z"/></svg>