<?xml version="1.0" encoding="UTF-8"?>
<!-- Created with Inkscape (http://www.inkscape.org/) -->
<svg width="2133.3" height="2133.3" version="1.1" viewBox="0 0 2133.3 2133.3" xmlns="http://www.w3.org/2000/svg" xmlns:cc="http://creativecommons.org/ns#" xmlns:dc="http://purl.org/dc/elements/1.1/" xmlns:rdf="http://www.w3.org/1999/02/22-rdf-syntax-ns#">
 <metadata>
  <rdf:RDF>
   <cc:Work rdf:about="">
    <dc:format>image/svg+xml</dc:format>
    <dc:type rdf:resource="http://purl.org/dc/dcmitype/StillImage"/>
    <dc:title/>
   </cc:Work>
  </rdf:RDF>
 </metadata>
 <circle transform="rotate(-90)" cx="-1066.7" cy="1066.7" r="840.68" fill="#fff" stroke-width="2.325"/>
 <path d="m1932.3 1090.7c-5.8499 188.3-69.667 364.71-184.98 511.33-21.067 26.789-38.154 46.106-64.094 72.459-138.32 140.52-317.99 228.74-513.43 252.1-36.68 4.3837-61.564 5.7742-103.33 5.7742-55.254 0-96.977-3.4915-149.33-12.496-256.06-44.04-480.76-204.05-608.3-433.17-61.02-109.62-96.93-231.01-106.5-360-0.843-11.367-1.5327-38.367-1.5327-60 0-41.769 1.3905-66.653 5.7743-103.33 29.12-243.65 159.56-462.1 361.22-604.95 115.76-82.001 252.85-134.57 395.33-151.6 36.68-4.3836 61.564-5.7741 103.33-5.7741 41.769 0 66.653 1.3905 103.33 5.7741 243.65 29.12 462.1 159.56 604.95 361.22 82.001 115.76 134.57 252.85 151.6 395.33 4.5217 37.835 7.0457 91.898 5.9448 127.33zm-134.47-80.697c-3.2583-39.637-7.7448-69.774-15.577-104.64-41.965-186.79-156.09-350.16-317.79-454.91-119.19-77.214-254.75-117.09-398-117.09-143.25 0-278.81 39.881-398 117.09-180.96 117.23-301.44 307.32-329.29 519.57-8.0204 61.122-8.0204 132.21 0 193.33 27.852 212.25 148.33 402.34 329.29 519.57 119.19 77.214 254.75 117.09 398 117.09 143.25 0 278.81-39.88 398-117.09 181.21-117.38 301.45-307.31 329.38-520.24 5.9908-45.674 7.6247-108.36 3.9799-152.7zm-508.03 160.7-223.33 223.33-446.66-446.66 93.986-94.014 352.68 352.67 352.68-352.67 93.986 94.014z" fill="#e00000" stroke-width="1.3333"/>
</svg>
