<?xml version="1.0" encoding="UTF-8"?>
<!-- Created with Inkscape (http://www.inkscape.org/) -->
<svg width="266.67" height="266.67" version="1.1" viewBox="0 0 266.67 266.67" xmlns="http://www.w3.org/2000/svg" xmlns:cc="http://creativecommons.org/ns#" xmlns:dc="http://purl.org/dc/elements/1.1/" xmlns:rdf="http://www.w3.org/1999/02/22-rdf-syntax-ns#">
 <metadata>
  <rdf:RDF>
   <cc:Work rdf:about="">
    <dc:format>image/svg+xml</dc:format>
    <dc:type rdf:resource="http://purl.org/dc/dcmitype/StillImage"/>
    <dc:title/>
   </cc:Work>
  </rdf:RDF>
 </metadata>
 <path d="m10.706 256.2-10.306-10.367 74.644-74.609 20.655 20.655-74.687 74.687zm129.67-56.315c-45.245-12.087-76.056-51.787-75.977-97.893 0.0267-15.5 2.2232-27.35 7.3286-39.538 22.289-53.207 85.423-77.386 137.31-52.589 12.955 6.1907 25.924 16.379 34.381 27.009 9.6338 12.11 13.466 19.117 18.525 33.874 3.9327 11.471 4.2738 13.827 4.3127 29.789 0.0341 14.039-0.52439 19.312-2.9391 27.746-9.4285 32.93-34.011 58.786-66.279 69.712-14.813 5.0158-41.617 5.9094-56.667 1.889zm45.264-26.202c20-5.6153 38.421-20.925 47.1-39.145 23.978-50.334-11.813-108-67.031-108-38.146 0-70.404 28.543-74.576 65.985-5.946 53.369 43.191 95.567 94.506 81.16z" fill="#e00000" stroke-width="1.3333"/>
</svg>
