<svg xmlns="http://www.w3.org/2000/svg" width="2133.333" height="2133.333"><circle style="fill:#fff;fill-opacity:1;stroke-width:2.32500005" cx="-1066.667" cy="-1066.667" r="840.678" transform="scale(-1)"/><path style="fill:#7e4795;fill-opacity:1;stroke-width:1.33333325" d="M1090.667 201.047c188.295 5.85 364.706 69.667 511.333 184.976 26.789 21.067 46.106 38.154 72.46 64.094 140.518 138.317 228.737 317.986 252.095 513.43 4.384 36.68 5.774 61.564 5.774 103.333 0 55.254-3.491 96.978-12.496 149.334-44.04 256.06-204.046 480.756-433.166 608.3-109.617 61.02-231.007 96.93-360 106.496-11.367.843-38.367 1.533-60 1.533-41.77 0-66.654-1.39-103.334-5.774-243.653-29.12-462.102-159.557-604.954-361.222-82.002-115.762-134.572-252.853-151.6-395.333-4.384-36.68-5.775-61.564-5.775-103.334 0-41.769 1.39-66.653 5.774-103.333C235.898 719.893 366.335 501.445 568 358.593c115.762-82.002 252.853-134.573 395.333-151.6 37.835-4.523 91.898-7.047 127.334-5.946zm-80.697 134.47c-39.637 3.259-69.775 7.745-104.637 15.577C718.54 393.06 555.176 507.182 450.428 668.88c-77.214 119.195-117.095 254.747-117.095 398s39.88 278.806 117.095 398C567.656 1645.845 757.75 1766.322 970 1794.173c61.122 8.02 132.211 8.02 193.333 0 212.25-27.851 402.344-148.328 519.572-329.293 77.214-119.194 117.095-254.747 117.095-398s-39.88-278.805-117.094-398c-117.385-181.205-307.31-301.454-520.24-329.383-45.674-5.99-108.358-7.624-152.696-3.98zm160.7 508.033 223.327 223.33-223.328 223.331-223.327 223.33-47.007-46.992-47.007-46.993 176.334-176.338 176.334-176.338-176.334-176.337-176.334-176.338 47.007-46.993 47.007-46.993z"/></svg>