<svg xmlns="http://www.w3.org/2000/svg" width="2133.333" height="2133.333"><circle style="fill:#fff;fill-opacity:1;stroke-width:2.32500005" cx="1066.667" cy="1066.667" r="840.678"/><path style="fill:#7e4795;fill-opacity:1;stroke-width:1.33333325" d="M1042.667 1932.286c-188.296-5.85-364.707-69.667-511.334-184.976-26.788-21.066-46.105-38.153-72.459-64.094-140.52-138.316-228.738-317.986-252.096-513.43-4.383-36.68-5.774-61.564-5.774-103.333 0-55.254 3.492-96.978 12.497-149.333 44.04-256.06 204.045-480.757 433.166-608.3 109.617-61.021 231.006-96.93 360-106.497 11.366-.843 38.366-1.532 60-1.532 41.769 0 66.653 1.39 103.333 5.774 243.654 29.12 462.102 159.556 604.954 361.221 82.002 115.762 134.573 252.853 151.6 395.334 4.385 36.68 5.775 61.564 5.775 103.333 0 41.77-1.39 66.653-5.774 103.333-29.12 243.654-159.557 462.103-361.222 604.955-115.762 82.001-252.853 134.572-395.333 151.6-37.835 4.522-91.898 7.046-127.333 5.945zm80.697-134.47c39.636-3.258 69.774-7.745 104.636-15.577 186.793-41.965 350.158-156.087 454.906-317.786 77.213-119.195 117.094-254.747 117.094-398s-39.88-278.805-117.094-398c-117.229-180.964-307.323-301.442-519.573-329.293-61.122-8.02-132.211-8.02-193.333 0-212.25 27.851-402.344 148.329-519.572 329.293-77.214 119.195-117.095 254.747-117.095 398s39.88 278.805 117.095 398c117.384 181.206 307.31 301.455 520.239 329.383 45.674 5.99 108.359 7.625 152.697 3.98zm-160.7-508.032-223.328-223.331 223.328-223.33 223.327-223.331 47.007 46.993 47.007 46.992-176.334 176.338-176.334 176.338 176.334 176.338 176.334 176.338-47.007 46.992-47.007 46.993z"/></svg>