<?xml version="1.0" encoding="UTF-8" standalone="no"?>
<!-- Created with Inkscape (http://www.inkscape.org/) -->

<svg
   xmlns:dc="http://purl.org/dc/elements/1.1/"
   xmlns:cc="http://creativecommons.org/ns#"
   xmlns:rdf="http://www.w3.org/1999/02/22-rdf-syntax-ns#"
   xmlns:svg="http://www.w3.org/2000/svg"
   xmlns="http://www.w3.org/2000/svg"
   xmlns:sodipodi="http://sodipodi.sourceforge.net/DTD/sodipodi-0.dtd"
   xmlns:inkscape="http://www.inkscape.org/namespaces/inkscape"
   version="1.1"
   id="svg2"
   width="2133.3333"
   height="2133.3333"
   viewBox="0 0 2133.3333 2133.3333"
   sodipodi:docname="chevron_down_round_purple.svg"
   inkscape:export-filename="C:\xampp\htdocs\a11y_style\assets\Nowy folder\chevron_left_round_purple.png"
   inkscape:export-xdpi="89"
   inkscape:export-ydpi="89"
   inkscape:version="0.92.4 (5da689c313, 2019-01-14)">
  <metadata
     id="metadata8">
    <rdf:RDF>
      <cc:Work
         rdf:about="">
        <dc:format>image/svg+xml</dc:format>
        <dc:type
           rdf:resource="http://purl.org/dc/dcmitype/StillImage" />
        <dc:title></dc:title>
      </cc:Work>
    </rdf:RDF>
  </metadata>
  <defs
     id="defs6" />
  <sodipodi:namedview
     pagecolor="#ffffff"
     bordercolor="#666666"
     borderopacity="1"
     objecttolerance="10"
     gridtolerance="10"
     guidetolerance="10"
     inkscape:pageopacity="0"
     inkscape:pageshadow="2"
     inkscape:window-width="1920"
     inkscape:window-height="1001"
     id="namedview4"
     showgrid="false"
     inkscape:zoom="0.110625"
     inkscape:cx="1066.6666"
     inkscape:cy="1066.6666"
     inkscape:window-x="-9"
     inkscape:window-y="-9"
     inkscape:window-maximized="1"
     inkscape:current-layer="svg2" />
  <circle
     style="fill:#ffffff;fill-opacity:1;stroke-width:2.32500005"
     id="path821"
     cx="-1066.6666"
     cy="1066.6666"
     r="840.67792"
     inkscape:export-xdpi="89"
     inkscape:export-ydpi="89"
     transform="rotate(-90)" />
  <path
     style="fill:#7e4795;fill-opacity:1;stroke-width:1.33333325"
     d="m 1932.286,1090.6666 c -5.8499,188.2958 -69.6668,364.7065 -184.9756,511.3333 -21.0669,26.7888 -38.1537,46.1056 -64.0941,72.4592 -138.3166,140.5193 -317.9864,228.7378 -513.43,252.0957 -36.6801,4.3837 -61.564,5.7742 -103.3334,5.7742 -55.2535,0 -96.97742,-3.4915 -149.33332,-12.4963 -256.0595,-44.0405 -480.7566,-204.0455 -608.3005,-433.1661 -61.0201,-109.6169 -96.9298,-231.0065 -106.4959,-360 -0.843,-11.3666 -1.5327,-38.3666 -1.5327,-59.9999 0,-41.7694 1.3905,-66.6533 5.7743,-103.33344 29.1195,-243.6536 159.5565,-462.1024 361.2215,-604.9544 115.762,-82.0014 252.8528,-134.5722 395.3333,-151.6005 36.6801,-4.3836 61.56402,-5.7741 103.33332,-5.7741 41.7694,0 66.6533,1.3905 103.3334,5.7741 243.6536,29.1196 462.1024,159.5567 604.9544,361.2216 82.0014,115.762 134.5722,252.8528 151.6005,395.3333 4.5217,37.83494 7.0457,91.89794 5.9448,127.33334 z m -134.4701,-80.697 c -3.2583,-39.63654 -7.7448,-69.77434 -15.577,-104.63634 -41.965,-186.7934 -156.0873,-350.1577 -317.786,-454.9056 -119.1945,-77.2138 -254.7471,-117.0944 -398,-117.0944 -143.25282,0 -278.80542,39.8806 -397.99992,117.0944 -180.9643,117.2282 -301.4416,307.3222 -329.2931,519.5723 -8.0204,61.12204 -8.0204,132.21134 0,193.33324 27.8515,212.2502 148.3288,402.3442 329.2931,519.5723 119.1945,77.2139 254.7471,117.0944 397.99992,117.0944 143.2529,0 278.8055,-39.8805 398,-117.0944 181.2058,-117.3845 301.4546,-307.3096 329.3831,-520.2389 5.9908,-45.6742 7.6247,-108.359 3.9799,-152.697 z m -508.0323,160.6997 -223.3307,223.3276 -223.33062,-223.3276 -223.3306,-223.32754 46.9929,-47.0068 46.9928,-47.0068 176.3378,176.33404 176.33772,176.3339 176.3378,-176.3339 176.3378,-176.33404 46.9928,47.0068 46.9928,47.0068 z"
     id="path817"
     inkscape:connector-curvature="0"
     inkscape:export-xdpi="89"
     inkscape:export-ydpi="89" />
</svg>
