<svg xmlns="http://www.w3.org/2000/svg" width="2133.333" height="2133.333"><circle style="fill:#fff;fill-opacity:1;stroke-width:2.32500005" cx="-1066.667" cy="1066.667" r="840.678" transform="rotate(-90)"/><path style="fill:#e00000;fill-opacity:1;stroke-width:1.33333325" d="M1932.286 1090.667c-5.85 188.295-69.667 364.706-184.976 511.333-21.066 26.789-38.153 46.106-64.094 72.46-138.316 140.518-317.986 228.737-513.43 252.095-36.68 4.384-61.564 5.774-103.333 5.774-55.254 0-96.978-3.491-149.333-12.496-256.06-44.04-480.757-204.046-608.3-433.166-61.021-109.617-96.93-231.007-106.497-360-.843-11.367-1.533-38.367-1.533-60 0-41.77 1.391-66.654 5.775-103.334C235.685 719.68 366.12 501.231 567.786 358.38c115.762-82.002 252.853-134.572 395.334-151.6 36.68-4.384 61.564-5.775 103.333-5.775 41.77 0 66.653 1.39 103.333 5.774C1413.44 235.898 1631.89 366.335 1774.741 568c82.001 115.762 134.572 252.853 151.6 395.333 4.522 37.835 7.046 91.898 5.945 127.334zm-134.47-80.697c-3.258-39.637-7.745-69.775-15.577-104.637-41.965-186.793-156.087-350.157-317.786-454.905-119.195-77.214-254.747-117.095-398-117.095s-278.806 39.88-398 117.095C487.489 567.656 367.011 757.75 339.16 970c-8.02 61.122-8.02 132.211 0 193.333 27.851 212.25 148.329 402.344 329.293 519.572C787.647 1760.12 923.2 1800 1066.453 1800s278.805-39.88 398-117.094c181.206-117.385 301.455-307.31 329.383-520.24 5.99-45.674 7.625-108.358 3.98-152.696zm-508.032 160.7-223.331 223.327-223.33-223.328-223.331-223.327 46.993-47.007 46.992-47.007 176.338 176.334 176.338 176.334 176.338-176.334 176.338-176.334 46.992 47.007 46.993 47.007z"/></svg>