<svg xmlns="http://www.w3.org/2000/svg" viewBox="0 0 83.87 35"><defs><style>.a{fill:#fff}</style></defs><path class="a" d="M31.3 28.32h-3.15v-1.84c-1.21 1.38-2.23 2.08-3.34 2.08a2 2 0 0 1-2-1.29 6.73 6.73 0 0 1-.35-2.46V11.42h3.18v13.72a.62.62 0 0 0 .68.64c.61 0 1.16-.53 1.83-1.48V11.42h3.18v16.9zM20.09 16.94a6.73 6.73 0 0 0-1-4 4.22 4.22 0 0 0-3.52-1.63 4 4 0 0 0-3.52 1.63 6.71 6.71 0 0 0-1 4v6a6.24 6.24 0 0 0 1 3.88 4.43 4.43 0 0 0 3.56 1.76 4.48 4.48 0 0 0 3.54-1.73 6.32 6.32 0 0 0 .94-3.85v-6zm-3.18 6.36c.17 1.67-.35 2.5-1.34 2.5s-1.51-.83-1.34-2.5v-6.7c-.17-1.67.35-2.46 1.34-2.46s1.51.78 1.34 2.46v6.7zM7.53 19.12v9.21H4.15v-9.21S.71 7.83 0 5.72h3.51l2.35 8.82L8.2 5.72h3.52zM64.02 14.11a2.35 2.35 0 0 0-1.58.76V25a2.33 2.33 0 0 0 1.58.76c.87 0 1.27-.64 1.27-2.32v-7.2c-.01-1.64-.4-2.13-1.27-2.13zM76.5 16.12c0-1.55-.4-2-1.4-2s-1.44.43-1.44 2v1.85h2.85v-1.85z"/><path class="a" d="M83.37 7.55s-.49-3.43-2-4.94a7.17 7.17 0 0 0-5-2.11C69.38 0 58.89 0 58.89 0S48.4 0 41.4.5a7.17 7.17 0 0 0-5 2.11c-1.5 1.51-2 4.94-2 4.94a74.92 74.92 0 0 0-.5 8.05v3.78a74.92 74.92 0 0 0 .5 8.05s.49 3.43 2 4.94c1.9 2 4.4 1.92 5.51 2.13 4 .38 17 .5 17 .5s10.5 0 17.5-.52a7.17 7.17 0 0 0 5-2.11c1.5-1.51 2-4.94 2-4.94a75 75 0 0 0 .5-8.05V15.6a75 75 0 0 0-.54-8.05zM44.86 28.32h-3.35V9.07H38V5.9h10.54v3.18h-3.68v19.24zm12.05 0h-3.18v-1.84c-1.21 1.38-2.23 2.08-3.34 2.08a2 2 0 0 1-2-1.29 6.73 6.73 0 0 1-.35-2.46V11.58h3.18v13.56a.62.62 0 0 0 .68.64c.61 0 1.16-.53 1.83-1.48V11.58h3.18v16.74zm11.55-5a12.87 12.87 0 0 1-.31 3.33 2.49 2.49 0 0 1-2.49 1.89 4.31 4.31 0 0 1-3.19-1.9v1.69h-3V5.89h3v7.31a4.34 4.34 0 0 1 3.2-1.89 2.45 2.45 0 0 1 2.42 1.95 11.74 11.74 0 0 1 .41 3.34v6.7zm6.69 2.46a1.3 1.3 0 0 0 1.35-1.22v-2.1h3.18v.47a19.06 19.06 0 0 1-.11 2 4.32 4.32 0 0 1-.71 1.82 4.19 4.19 0 0 1-3.71 1.79 4.34 4.34 0 0 1-3.67-1.71A6.19 6.19 0 0 1 70.47 23v-5.89a6.73 6.73 0 0 1 1-4 4.34 4.34 0 0 1 3.68-1.77 4.24 4.24 0 0 1 3.58 1.75 6.56 6.56 0 0 1 1 3.94v3.42h-6v3c-.09 1.55.35 2.33 1.42 2.33z"/></svg>