<svg xmlns="http://www.w3.org/2000/svg" viewBox="0 0 37.29 35"><path d="M19.29 35.5h-.47a8.16 8.16 0 0 1-5-2 7.29 7.29 0 0 0-2.89-1.48 9.34 9.34 0 0 0-1.52-.13 10.39 10.39 0 0 0-2.1.24 4.61 4.61 0 0 1-.78.11.49.49 0 0 1-.53-.35c-.11-.3-.17-.59-.23-.89-.16-.72-.27-1.16-.57-1.2C1.69 29.28.69 28.54.47 28a.67.67 0 0 1-.05-.22.39.39 0 0 1 .33-.41c5.39-.89 7.8-6.39 7.9-6.63a2.05 2.05 0 0 0 .2-1.74c-.37-.87-1.58-1.25-2.37-1.51l-.53-.18c-1.59-.63-1.72-1.28-1.66-1.6a1.5 1.5 0 0 1 1.46-1 1 1 0 0 1 .44.09 4.64 4.64 0 0 0 1.92.51A1.58 1.58 0 0 0 9.25 15c0-.36 0-.75-.07-1.14-.18-2.55-.36-5.71.45-7.52a9.74 9.74 0 0 1 9-5.83h.75a9.76 9.76 0 0 1 9.06 5.84c.81 1.81.61 5 .45 7.52V14c0 .35 0 .7-.06 1a1.53 1.53 0 0 0 1 .36 4.8 4.8 0 0 0 1.81-.5 1.36 1.36 0 0 1 .56-.11 1.72 1.72 0 0 1 .65.12 1.19 1.19 0 0 1 .9 1c0 .37-.28.93-1.67 1.49l-.53.18c-.8.25-2 .64-2.37 1.51a2.05 2.05 0 0 0 .19 1.72c.1.23 2.51 5.74 7.9 6.62a.4.4 0 0 1 .33.41.66.66 0 0 1-.06.23c-.22.52-1.22 1.26-4.73 1.8-.29 0-.4.42-.57 1.2-.06.28-.13.56-.21.86a.47.47 0 0 1-.5.37 4.39 4.39 0 0 1-.78-.1 10.46 10.46 0 0 0-2.11-.22 9.35 9.35 0 0 0-1.52.13 7.28 7.28 0 0 0-2.89 1.47 8.16 8.16 0 0 1-4.94 1.96z" transform="translate(-.41 -.5)" style="fill:#fff"/></svg>