<svg xmlns="http://www.w3.org/2000/svg" viewBox="0 0 37.18 34.99"><path d="M18.88 35h-.47a8.16 8.16 0 0 1-5-2 7.29 7.29 0 0 0-2.89-1.48A9.34 9.34 0 0 0 9 31.39a10.39 10.39 0 0 0-2.1.24 4.61 4.61 0 0 1-.78.11.49.49 0 0 1-.53-.35 5.83 5.83 0 0 1-.23-.89c-.16-.72-.27-1.16-.57-1.2C1.28 28.78.28 28 .06 27.5a.67.67 0 0 1-.06-.22.39.39 0 0 1 .33-.41c5.39-.89 7.8-6.39 7.9-6.63a2 2 0 0 0 .2-1.74c-.36-.87-1.57-1.25-2.36-1.5l-.53-.18c-1.59-.63-1.72-1.28-1.66-1.6a1.5 1.5 0 0 1 1.46-1 1 1 0 0 1 .44.09 4.64 4.64 0 0 0 1.92.51 1.58 1.58 0 0 0 1.14-.31 6.4 6.4 0 0 0-.07-1.14c-.18-2.55-.36-5.71.45-7.52a9.74 9.74 0 0 1 9-5.83H19a9.76 9.76 0 0 1 9 5.83c.81 1.81.61 5 .45 7.52v.13a5.33 5.33 0 0 1-.06 1 1.53 1.53 0 0 0 1 .36 4.8 4.8 0 0 0 1.81-.5 1.36 1.36 0 0 1 .56-.11 1.72 1.72 0 0 1 .65.12 1.19 1.19 0 0 1 .9 1c0 .37-.28.93-1.67 1.49l-.5.14c-.8.25-2 .64-2.37 1.51a2 2 0 0 0 .23 1.76c.1.23 2.51 5.74 7.9 6.62a.4.4 0 0 1 .33.41.66.66 0 0 1-.06.23c-.22.52-1.22 1.26-4.73 1.8-.29 0-.4.42-.57 1.2-.06.28-.13.56-.21.86a.47.47 0 0 1-.5.37 4.39 4.39 0 0 1-.78-.1 10.46 10.46 0 0 0-2.11-.22 9.35 9.35 0 0 0-1.52.13A7.28 7.28 0 0 0 23.82 33a8.16 8.16 0 0 1-4.94 2z" transform="translate(-.01 -.01)" style="fill:#ec1c24"/></svg>