<svg xmlns="http://www.w3.org/2000/svg" viewBox="0 0 35 35"><defs><style>.a{fill:#fff}</style></defs><path class="a" d="M17.5 3.15c4.67 0 5.23 0 7.07.1a9.68 9.68 0 0 1 3.25.6 5.42 5.42 0 0 1 2 1.31 5.42 5.42 0 0 1 1.31 2 9.68 9.68 0 0 1 .6 3.25c.08 1.85.1 2.4.1 7.07s0 5.23-.1 7.07a9.68 9.68 0 0 1-.6 3.25 5.8 5.8 0 0 1-3.32 3.32 9.68 9.68 0 0 1-3.25.6c-1.85.08-2.4.1-7.07.1s-5.23 0-7.07-.1a9.68 9.68 0 0 1-3.25-.6 5.42 5.42 0 0 1-2-1.31 5.42 5.42 0 0 1-1.31-2 9.68 9.68 0 0 1-.6-3.25c-.08-1.85-.1-2.4-.1-7.07s0-5.23.1-7.07a9.68 9.68 0 0 1 .6-3.25 5.42 5.42 0 0 1 1.31-2 5.42 5.42 0 0 1 2-1.31 9.68 9.68 0 0 1 3.25-.6c1.85-.08 2.4-.1 7.07-.1M17.5 0c-4.75 0-5.35 0-7.22.11a12.84 12.84 0 0 0-4.25.81 8.58 8.58 0 0 0-3.1 2 8.58 8.58 0 0 0-2 3.1 12.84 12.84 0 0 0-.81 4.25C.02 12.15 0 12.75 0 17.5s0 5.35.11 7.22a12.84 12.84 0 0 0 .81 4.25 8.58 8.58 0 0 0 2 3.1 8.58 8.58 0 0 0 3.1 2 12.84 12.84 0 0 0 4.25.81c1.87.09 2.46.11 7.22.11s5.35 0 7.22-.11a12.84 12.84 0 0 0 4.25-.81 8.95 8.95 0 0 0 5.12-5.12 12.84 12.84 0 0 0 .81-4.25c.09-1.87.11-2.46.11-7.22s0-5.35-.11-7.22a12.84 12.84 0 0 0-.81-4.25 8.58 8.58 0 0 0-2-3.1 8.58 8.58 0 0 0-3.1-2 12.84 12.84 0 0 0-4.26-.8C22.85.02 22.25 0 17.5 0z"/><path class="a" d="M17.5 8.5a9 9 0 1 0 9 9 9 9 0 0 0-9-9zm0 14.82a5.83 5.83 0 1 1 5.83-5.82 5.83 5.83 0 0 1-5.83 5.83z"/><circle class="a" cx="26.84" cy="8.16" r="2.1"/></svg>