<?xml version="1.0" encoding="UTF-8" standalone="no"?>
<!-- Created with Inkscape (http://www.inkscape.org/) -->

<svg
   xmlns:dc="http://purl.org/dc/elements/1.1/"
   xmlns:cc="http://creativecommons.org/ns#"
   xmlns:rdf="http://www.w3.org/1999/02/22-rdf-syntax-ns#"
   xmlns:svg="http://www.w3.org/2000/svg"
   xmlns="http://www.w3.org/2000/svg"
   xmlns:sodipodi="http://sodipodi.sourceforge.net/DTD/sodipodi-0.dtd"
   xmlns:inkscape="http://www.inkscape.org/namespaces/inkscape"
   version="1.1"
   id="svg2"
   width="1600"
   height="1600"
   viewBox="0 0 1600 1600"
   sodipodi:docname="plus_round_purple.svg"
   inkscape:version="0.92.4 (5da689c313, 2019-01-14)">
  <metadata
     id="metadata8">
    <rdf:RDF>
      <cc:Work
         rdf:about="">
        <dc:format>image/svg+xml</dc:format>
        <dc:type
           rdf:resource="http://purl.org/dc/dcmitype/StillImage" />
        <dc:title></dc:title>
      </cc:Work>
    </rdf:RDF>
  </metadata>
  <defs
     id="defs6" />
  <sodipodi:namedview
     pagecolor="#ffffff"
     bordercolor="#666666"
     borderopacity="1"
     objecttolerance="10"
     gridtolerance="10"
     guidetolerance="10"
     inkscape:pageopacity="0"
     inkscape:pageshadow="2"
     inkscape:window-width="1920"
     inkscape:window-height="1001"
     id="namedview4"
     showgrid="false"
     inkscape:zoom="0.1475"
     inkscape:cx="800"
     inkscape:cy="800"
     inkscape:window-x="-9"
     inkscape:window-y="-9"
     inkscape:window-maximized="1"
     inkscape:current-layer="svg2" />
  <circle
     style="fill:#ffffff;fill-opacity:1;stroke-width:2.14942527"
     id="path825"
     cx="800"
     cy="800"
     r="633.89832" />
  <path
     style="fill:#7e4795;fill-opacity:1"
     d="m 782,1449.2145 c -141.2218,-4.3874 -273.5299,-52.2501 -383.5,-138.7317 -20.0916,-15.8002 -34.5792,-28.6153 -54.3443,-48.0706 -105.3896,-103.7374 -171.5534,-238.4898 -189.0718,-385.07246 -3.2878,-27.51006 -4.3307,-46.17301 -4.3307,-77.5 0,-41.44018 2.6186,-72.7331 9.3722,-112 C 193.1558,495.7951 313.1596,327.27227 485,231.61437 c 82.2127,-45.76508 173.2549,-72.69736 270,-79.87198 8.525,-0.63221 28.775,-1.14948 45,-1.14948 31.327,0 49.99,1.04288 77.5,4.33067 182.7402,21.83967 346.5768,119.66743 453.7158,270.91616 61.5011,86.82149 100.9292,189.63959 113.7004,296.5 3.2877,27.51006 4.3306,46.17301 4.3306,77.5 0,31.32699 -1.0429,49.98994 -4.3306,77.5 -21.8397,182.74016 -119.6675,346.57676 -270.9162,453.71576 -86.8215,61.5011 -189.6396,100.9292 -296.5,113.7004 -28.3761,3.3913 -68.9234,5.2843 -95.5,4.4586 z m 60.5228,-100.8526 c 29.7274,-2.4437 52.3307,-5.8086 78.4772,-11.6827 140.0951,-31.4738 262.6183,-117.0655 341.1792,-238.3395 C 1320.0896,1008.9438 1350,907.27941 1350,799.83974 c 0,-107.43967 -29.9104,-209.10407 -87.8208,-298.5 C 1174.2581,365.61652 1031.6876,275.25859 872.5,254.36997 c -45.8415,-6.01532 -99.1585,-6.01532 -145,0 C 568.3124,275.25859 425.7419,365.61652 337.8208,501.33974 279.9104,590.73567 250,692.40007 250,799.83974 c 0,107.43967 29.9104,209.10406 87.8208,298.49996 88.0384,135.9043 230.4822,226.0909 390.1792,247.0373 34.2557,4.4931 81.2693,5.7185 114.5228,2.9849 z M 750,1037.8397 V 843.83974 H 563.0815 376.163 l -0.01,-48.30541 -0.01,-48.30541 169.6763,-0.0972 c 93.3219,-0.0534 177.4388,-0.14101 186.9263,-0.19459 l 17.2504,-0.0974 V 565.92122 385.00269 l 48.3045,-0.008 48.3045,-0.008 -0.069,179.1763 c -0.038,98.54697 0.1025,179.9638 0.3121,180.9263 0.3614,1.6591 10.1399,1.75 188.2645,1.75 h 187.8834 v 48.5 48.5 h -188 -187.9999 v 194.00001 194 h -48.5 -48.5 v -194 z"
     id="path817"
     inkscape:connector-curvature="0" />
</svg>
