<svg width="36" height="1044" xmlns="http://www.w3.org/2000/svg"><g fill="none" fill-rule="evenodd"><path d="M12 11v14l13-7-13-7z" fill="#666"/><path d="M12 47v14l13-7-13-7z" fill="#444"/><path d="M18 160.214V157l-7 4.5 7 4.5v-3.214L23 166v-9l-5 3.214z" fill="#666"/><path d="M18 196.214V193l-7 4.5 7 4.5v-3.214L23 202v-9l-5 3.214z" fill="#444"/><path d="M18 232.214V229l7 4.5-7 4.5v-3.214L13 238v-9l5 3.214z" fill="#666"/><path d="M18 268.214V265l7 4.5-7 4.5v-3.214L13 274v-9l5 3.214z" fill="#444"/><path d="M11 83.498c0-.275.215-.498.498-.498h4.004c.275 0 .498.22.498.498v13.004a.493.493 0 0 1-.498.498h-4.004a.496.496 0 0 1-.498-.498V83.498zm8 0c0-.275.215-.498.498-.498h4.004c.275 0 .498.22.498.498v13.004a.493.493 0 0 1-.498.498h-4.004a.496.496 0 0 1-.498-.498V83.498z" fill="#666"/><path d="M11 119.498c0-.275.215-.498.498-.498h4.004c.275 0 .498.22.498.498v13.004a.493.493 0 0 1-.498.498h-4.004a.496.496 0 0 1-.498-.498v-13.004zm8 0c0-.275.215-.498.498-.498h4.004c.275 0 .498.22.498.498v13.004a.493.493 0 0 1-.498.498h-4.004a.496.496 0 0 1-.498-.498v-13.004zM14.879 340.58l-1.116-1.275c1.685-2.515 4.224-2.3 4.224-2.3 3.176 0 5.025 2.495 5.013 4.98-.012 2.496-2.01 4.982-5 4.982-2.718 0-3.994-2.095-3.994-2.095l1.542-.844s.807 1.155 2.439 1.155c4.336 0 4.342-6.28 0-6.45-.005 0-1.88 0-2.789 1.68-.011.022-.126.312-.146.357l1.386 1.527-4.359.68.336-5.11 2.464 2.713z" fill="#444"/><path d="M13.8 303.252c1.685-2.459 4.187-2.247 4.187-2.247 3.176 0 5.025 2.495 5.013 4.98-.012 2.496-2.01 4.982-5 4.982-2.718 0-3.994-2.095-3.994-2.095l1.542-.844s.807 1.155 2.439 1.155c4.336 0 4.342-6.28 0-6.45-.005 0-1.895 0-2.8 1.701l-.054.151 1.745 1.745-4.804.629.34-5.092 1.386 1.385zM14 382.501c0-.277.233-.501.503-.501h5.994c.278 0 .503.23.503.501v9.998c0 .277-.163.662-.36.857 0 0-2.64 2.644-3.084 2.644-.445 0-3.207-2.667-3.207-2.667-.193-.184-.349-.563-.349-.834V382.5zM14 418.501c0-.277.233-.501.503-.501h5.994c.278 0 .503.23.503.501v9.998c0 .277-.163.662-.36.857 0 0-2.64 2.644-3.084 2.644-.445 0-3.207-2.667-3.207-2.667-.193-.184-.349-.563-.349-.834V418.5zM24.414 666l2.468-2.468c.2-.2.2-.52.004-.717l-.7-.7a.5.5 0 0 0-.718.003L23 664.586l-2.468-2.468c-.2-.2-.52-.2-.717-.004l-.7.7a.5.5 0 0 0 .003.718L21.586 666l-2.468 2.468c-.2.2-.2.52-.004.717l.7.7a.5.5 0 0 0 .718-.003L23 667.414l2.468 2.468c.2.2.52.2.717.004l.7-.7a.5.5 0 0 0-.003-.718L24.414 666zM9.25 663.142c-.69 0-1.25.56-1.25 1.25v3.37c0 .69.56 1.25 1.25 1.25h4.25l3.5 4.021V659l-3.5 4.142H9.25z" fill="#666"/><path d="m24.414 702 2.468-2.468c.2-.2.2-.52.004-.717l-.7-.7a.5.5 0 0 0-.718.003L23 700.586l-2.468-2.468c-.2-.2-.52-.2-.717-.004l-.7.7a.5.5 0 0 0 .003.718L21.586 702l-2.468 2.468c-.2.2-.2.52-.004.717l.7.7a.5.5 0 0 0 .718-.003L23 703.414l2.468 2.468c.2.2.52.2.717.004l.7-.7a.5.5 0 0 0-.003-.718L24.414 702zM9.25 699.142c-.69 0-1.25.56-1.25 1.25v3.37c0 .69.56 1.25 1.25 1.25h4.25l3.5 4.021V695l-3.5 4.142H9.25z" fill="#444"/><path d="M9.25 447.136c-.69 0-1.25.56-1.25 1.25v3.37c0 .69.56 1.25 1.25 1.25h4.25l3.5 4.021v-14.033l-3.5 4.142H9.25zm12.002 2.88a3.014 3.014 0 0 0-1.645-2.69l-.53 1.076c.584.298.988.906.988 1.615a1.81 1.81 0 0 1-.988 1.614l.53 1.076a3.014 3.014 0 0 0 1.645-2.69zm.48-7.016-.53 1.08a6.649 6.649 0 0 1 3.611 5.937c0 2.6-1.472 4.846-3.611 5.936l.53 1.08A7.86 7.86 0 0 0 26 450.017 7.86 7.86 0 0 0 21.732 443zm1.894 7.017a5.44 5.44 0 0 0-2.955-4.858l-.536 1.091a4.22 4.22 0 0 1 2.304 3.767 4.22 4.22 0 0 1-2.304 3.766l.536 1.091a5.439 5.439 0 0 0 2.955-4.857z" fill="#666"/><path d="M9.25 483.136c-.69 0-1.25.56-1.25 1.25v3.37c0 .69.56 1.25 1.25 1.25h4.25l3.5 4.021v-14.033l-3.5 4.142H9.25zm12.002 2.88a3.014 3.014 0 0 0-1.645-2.69l-.53 1.076c.584.298.988.906.988 1.615a1.81 1.81 0 0 1-.988 1.614l.53 1.076a3.014 3.014 0 0 0 1.645-2.69zm.48-7.016-.53 1.08a6.649 6.649 0 0 1 3.611 5.937c0 2.6-1.472 4.846-3.611 5.936l.53 1.08A7.86 7.86 0 0 0 26 486.017 7.86 7.86 0 0 0 21.732 479zm1.894 7.017a5.44 5.44 0 0 0-2.955-4.858l-.536 1.091a4.22 4.22 0 0 1 2.304 3.767 4.22 4.22 0 0 1-2.304 3.766l.536 1.091a5.439 5.439 0 0 0 2.955-4.857z" fill="#444"/><path d="M9.25 519.136c-.69 0-1.25.56-1.25 1.25v3.37c0 .69.56 1.25 1.25 1.25h4.25l3.5 4.021v-14.033l-3.5 4.142H9.25zm12.154 2.875c0-1.22-.74-2.264-1.806-2.775l-.58 1.11c.64.307 1.083.934 1.083 1.665 0 .732-.444 1.36-1.084 1.666l.581 1.11c1.066-.51 1.806-1.556 1.806-2.776zm2.605 0c0-2.195-1.322-4.09-3.243-5.012l-.588 1.126c1.493.716 2.528 2.18 2.528 3.886 0 1.707-1.035 3.17-2.528 3.887l.588 1.126c1.921-.92 3.243-2.816 3.243-5.013z" fill="#666"/><path d="M9.25 555.136c-.69 0-1.25.56-1.25 1.25v3.37c0 .69.56 1.25 1.25 1.25h4.25l3.5 4.021v-14.033l-3.5 4.142H9.25zm12.154 2.875c0-1.22-.74-2.264-1.806-2.775l-.58 1.11c.64.307 1.083.934 1.083 1.665 0 .732-.444 1.36-1.084 1.666l.581 1.11c1.066-.51 1.806-1.556 1.806-2.776zm2.605 0c0-2.195-1.322-4.09-3.243-5.012l-.588 1.126c1.493.716 2.528 2.18 2.528 3.886 0 1.707-1.035 3.17-2.528 3.887l.588 1.126c1.921-.92 3.243-2.816 3.243-5.013zM9.25 627.136c-.69 0-1.25.56-1.25 1.25v3.37c0 .69.56 1.25 1.25 1.25h4.25l3.5 4.021v-14.033l-3.5 4.142H9.25zM21 630.011c0-1.22-.614-2.264-1.5-2.775l-.483 1.11c.532.307.9.934.9 1.665 0 .732-.368 1.36-.9 1.666l.483 1.11c.886-.51 1.5-1.556 1.5-2.776z" fill="#444"/><path d="M9.25 591.136c-.69 0-1.25.56-1.25 1.25v3.37c0 .69.56 1.25 1.25 1.25h4.25l3.5 4.021v-14.033l-3.5 4.142H9.25zM21 594.011c0-1.22-.614-2.264-1.5-2.775l-.483 1.11c.532.307.9.934.9 1.665 0 .732-.368 1.36-.9 1.666l.483 1.11c.886-.51 1.5-1.556 1.5-2.776z" fill="#666"/><rect fill="#666" x="15" y="734" width="5" height="8" rx=".5"/><rect fill="#444" x="15" y="770" width="5" height="8" rx=".5"/><path d="M10 807.996A3.996 3.996 0 0 1 13.996 804h8.008A4 4 0 0 1 26 807.996v4.008A3.996 3.996 0 0 1 22.004 816h-8.008A4 4 0 0 1 10 812.004v-4.008zm1.99 2.009c0-3.381 4.64-4.198 5.84-.991.003.009-1.335.425-1.341.412-.924-1.847-3.091-.945-3.091.579 0 1.012.942 1.602 1.638 1.602.965 0 1.404-.925 1.404-.925l1.39.335c0 .115-.834 1.993-2.794 1.993-1.838 0-3.046-1.505-3.046-3.005zm6 0c0-3.381 4.64-4.198 5.84-.991.003.009-1.335.425-1.341.412-.924-1.847-3.091-.945-3.091.579 0 1.012.942 1.602 1.638 1.602.965 0 1.404-.925 1.404-.925l1.39.335c0 .115-.834 1.993-2.794 1.993-1.838 0-3.046-1.505-3.046-3.005z" fill="#666"/><path d="M10 843.996A3.996 3.996 0 0 1 13.996 840h8.008A4 4 0 0 1 26 843.996v4.008A3.996 3.996 0 0 1 22.004 852h-8.008A4 4 0 0 1 10 848.004v-4.008zm1.99 2.009c0-3.381 4.64-4.198 5.84-.991.003.009-1.335.425-1.341.412-.924-1.847-3.091-.945-3.091.579 0 1.012.942 1.602 1.638 1.602.965 0 1.404-.925 1.404-.925l1.39.335c0 .115-.834 1.993-2.794 1.993-1.838 0-3.046-1.505-3.046-3.005zm6 0c0-3.381 4.64-4.198 5.84-.991.003.009-1.335.425-1.341.412-.924-1.847-3.091-.945-3.091.579 0 1.012.942 1.602 1.638 1.602.965 0 1.404-.925 1.404-.925l1.39.335c0 .115-.834 1.993-2.794 1.993-1.838 0-3.046-1.505-3.046-3.005z" fill="#444"/><path d="M10 879.996A3.996 3.996 0 0 1 13.996 876h8.008A4 4 0 0 1 26 879.996v4.008A3.996 3.996 0 0 1 22.004 888h-8.008A4 4 0 0 1 10 884.004v-4.008zm1.99 2.009c0-3.381 4.64-4.198 5.84-.991.003.009-1.335.425-1.341.412-.924-1.847-3.091-.945-3.091.579 0 1.012.942 1.602 1.638 1.602.965 0 1.404-.925 1.404-.925l1.39.335c0 .115-.834 1.993-2.794 1.993-1.838 0-3.046-1.505-3.046-3.005zm6 0c0-3.381 4.64-4.198 5.84-.991.003.009-1.335.425-1.341.412-.924-1.847-3.091-.945-3.091.579 0 1.012.942 1.602 1.638 1.602.965 0 1.404-.925 1.404-.925l1.39.335c0 .115-.834 1.993-2.794 1.993-1.838 0-3.046-1.505-3.046-3.005z" fill="#009CDE"/><path d="M15 912h-5v5h2.5v-2.5H15V912zm11 5v-5h-5v2.5h2.5v2.5H26zm-11 7h-5v-5h2.5v2.5H15v2.5zm11-5v5h-5v-2.5h2.5V919H26z" fill="#666"/><path d="M15 948h-5v5h2.5v-2.5H15V948zm11 5v-5h-5v2.5h2.5v2.5H26zm-11 7h-5v-5h2.5v2.5H15v2.5zm11-5v5h-5v-2.5h2.5V955H26z" fill="#444"/><path d="M21 984v5h5v-2h-3v-3h-2zm-11 5h5v-5h-2v3h-3v2zm5 7v-5h-5v2h3v3h2zm11-5h-5v5h2v-3h3v-2z" fill="#666"/><path d="M21 1020v5h5v-2h-3v-3h-2zm-11 5h5v-5h-2v3h-3v2zm5 7v-5h-5v2h3v3h2zm11-5h-5v5h2v-3h3v-2z" fill="#444"/></g></svg>